HIERARCHY
ROOT Hips
{
	OFFSET 0.000000 0.000000 0.000000
	CHANNELS 6 Xposition Yposition Zposition Zrotation Yrotation Xrotation 
	JOINT LHipJoint
	{
		OFFSET 0.000000 0.000000 0.000000
		CHANNELS 3 Zrotation Yrotation Xrotation
		JOINT LeftUpLeg
		{
			OFFSET 1.363060 -1.794630 0.839290
			CHANNELS 3 Zrotation Yrotation Xrotation
			JOINT LeftLeg
			{
				OFFSET 2.448110 -6.726130 0.000000
				CHANNELS 3 Zrotation Yrotation Xrotation
				JOINT LeftFoot
				{
					OFFSET 2.562200 -7.039590 0.000000
					CHANNELS 3 Zrotation Yrotation Xrotation
					JOINT LeftToeBase
					{
						OFFSET 0.157640 -0.433110 2.322550
						CHANNELS 3 Zrotation Yrotation Xrotation
						End Site
						{
							OFFSET 0.000000 0.000000 0.000000
						}
					}
				}
			}
		}
	}
	JOINT RHipJoint
	{
		OFFSET 0.000000 0.000000 0.000000
		CHANNELS 3 Zrotation Yrotation Xrotation
		JOINT RightUpLeg
		{
			OFFSET -1.305520 -1.794630 0.839290
			CHANNELS 3 Zrotation Yrotation Xrotation
			JOINT RightLeg
			{
				OFFSET -2.542530 -6.985550 0.000000
				CHANNELS 3 Zrotation Yrotation Xrotation
				JOINT RightFoot
				{
					OFFSET -2.568260 -7.056230 0.000000
					CHANNELS 3 Zrotation Yrotation Xrotation
					JOINT RightToeBase
					{
						OFFSET -0.164730 -0.452590 2.363150
						CHANNELS 3 Zrotation Yrotation Xrotation
						End Site
						{
							OFFSET 0.000000 0.000000 0.000000
						}
					}
				}
			}
		}
	}
	JOINT LowerBack
	{
		OFFSET 0.000000 0.000000 0.000000
		CHANNELS 3 Zrotation Yrotation Xrotation
		JOINT Spine
		{
			OFFSET 0.028270 2.035590 -0.193380
			CHANNELS 3 Zrotation Yrotation Xrotation
			JOINT Spine1
			{
				OFFSET 0.056720 2.048850 -0.042750
				CHANNELS 3 Zrotation Yrotation Xrotation
				JOINT Neck
				{
					OFFSET 0.000000 0.000000 0.000000
					CHANNELS 3 Zrotation Yrotation Xrotation
					JOINT Neck1
					{
						OFFSET -0.054170 1.746240 0.172020
						CHANNELS 3 Zrotation Yrotation Xrotation
						JOINT Head
						{
							OFFSET 0.104070 1.761360 -0.123970
							CHANNELS 3 Zrotation Yrotation Xrotation
							End Site
							{
								OFFSET 0.000000 0.000000 0.000000
							}
						}
					}
				}
				JOINT LeftShoulder
				{
					OFFSET 0.000000 0.000000 0.000000
					CHANNELS 3 Zrotation Yrotation Xrotation
					JOINT LeftArm
					{
						OFFSET 3.362410 1.200890 -0.311210
						CHANNELS 3 Zrotation Yrotation Xrotation
						JOINT LeftForeArm
						{
							OFFSET 4.983000 -0.000000 -0.000000
							CHANNELS 3 Zrotation Yrotation Xrotation
							JOINT LeftHand
							{
								OFFSET 3.483560 -0.000000 -0.000000
								CHANNELS 3 Zrotation Yrotation Xrotation
								JOINT LeftFingerBase
								{
									OFFSET 0.000000 0.000000 0.000000
									CHANNELS 3 Zrotation Yrotation Xrotation
									JOINT LeftHandIndex1
									{
										OFFSET 0.715260 -0.000000 -0.000000
										CHANNELS 3 Zrotation Yrotation Xrotation
										End Site
										{
											OFFSET 0.000000 0.000000 0.000000
										}
									}
								}
								JOINT LThumb
								{
									OFFSET 0.000000 0.000000 0.000000
									CHANNELS 3 Zrotation Yrotation Xrotation
									End Site
									{
										OFFSET 0.000000 0.000000 0.000000
									}
								}
							}
						}
					}
				}
				JOINT RightShoulder
				{
					OFFSET 0.000000 0.000000 0.000000
					CHANNELS 3 Zrotation Yrotation Xrotation
					JOINT RightArm
					{
						OFFSET -3.136600 1.374050 -0.404650
						CHANNELS 3 Zrotation Yrotation Xrotation
						JOINT RightForeArm
						{
							OFFSET -5.241900 -0.000000 -0.000000
							CHANNELS 3 Zrotation Yrotation Xrotation
							JOINT RightHand
							{
								OFFSET -3.444170 -0.000000 -0.000000
								CHANNELS 3 Zrotation Yrotation Xrotation
								JOINT RightFingerBase
								{
									OFFSET 0.000000 0.000000 0.000000
									CHANNELS 3 Zrotation Yrotation Xrotation
									JOINT RightHandIndex1
									{
										OFFSET -0.622530 -0.000000 -0.000000
										CHANNELS 3 Zrotation Yrotation Xrotation
										End Site
										{
											OFFSET 0.000000 0.000000 0.000000
										}
									}
								}
								JOINT RThumb
								{
									OFFSET 0.000000 0.000000 0.000000
									CHANNELS 3 Zrotation Yrotation Xrotation
									End Site
									{
										OFFSET 0.000000 0.000000 0.000000
									}
								}
							}
						}
					}
				}
			}
		}
	}
}
MOTION
Frames: 9
Frame Time: 0.008333
5.197405 17.075292 7.589171 20.104087 -31.228019 3.749636 -10.711016 1.029557 7.766730 -7.771979 -12.225247 1.566626 0.380265 10.644098 30.147216 4.451943 2.726089 45.698146 0.133400 -2.354500 -6.486400 3.734593 4.354733 -5.769235 17.904071 -5.828460 -53.549248 0.230377 -10.576226 26.514837 -1.237008 -3.894361 22.758486 -0.911900 6.084800 -17.030600 -8.183432 -4.127042 14.182573 -1.424867 -6.482773 -4.166851 -0.126689 -3.820993 -5.063501 -4.290052 -2.131288 -18.092169 5.533711 -2.306181 2.468268 1.729800 -1.140900 5.785200 2.820534 -3.564079 0.435583 -80.791419 2.974174 40.466751 142.905924 -42.396630 -106.408756 0.076284 -0.258661 -15.551075 16.747675 -10.663987 -3.103400 -7.125000 0.000000 0.000000 -7.287900 19.195200 4.523100 -5.843596 2.081299 0.188398 92.095489 -44.857352 29.096947 -90.275210 60.361710 -65.761741 1.774449 0.409967 -19.777455 -28.478294 10.841560 -6.309400 7.125000 0.000000 0.000000 -2.230300 -17.399000 -1.462500 
4.928234 17.020066 8.121927 20.784274 -31.333941 2.890635 -10.425690 0.782015 7.419547 -8.806844 -10.883403 1.127419 1.480294 11.729682 33.525080 3.861105 3.724418 44.262661 0.102000 -2.059200 -5.669200 3.758566 4.360519 -5.611358 17.193627 -5.959296 -52.631236 0.089072 -10.688889 26.979372 -1.260946 -3.930372 23.271535 -0.308400 3.570500 -9.871200 -8.481962 -4.036978 14.112315 -1.440821 -6.408250 -4.119728 -0.097480 -3.762903 -4.856798 -4.470935 -2.135654 -17.968516 5.376403 -2.279227 2.403119 1.687500 -1.150800 5.699500 2.855938 -3.527774 0.428066 -81.363977 3.923098 41.717971 141.151686 -43.887631 -105.063081 0.073949 -0.236475 -14.413903 16.999955 -10.765512 -3.188600 -7.125000 0.000000 0.000000 -7.114800 19.050300 4.437100 -5.859912 2.077684 0.218540 92.594870 -44.182385 28.584941 -90.623434 60.374122 -66.033778 1.779395 0.398468 -19.594565 -28.549546 10.787607 -6.301500 7.125000 0.000000 0.000000 -2.285200 -17.442800 -1.496300 
4.657377 16.962838 8.645831 21.237833 -31.484844 2.099920 -10.073349 0.531465 7.017479 -9.583156 -9.455241 0.386009 2.779248 12.865961 37.315975 3.212458 4.846598 42.600770 0.084500 -1.874800 -5.159900 3.775851 4.318584 -5.396042 16.732041 -5.951118 -51.721795 -0.222471 -11.024561 28.126295 -1.136429 -4.107099 23.069471 -0.004900 0.450300 -1.237200 -8.669633 -3.897125 14.140218 -1.422161 -6.258898 -4.079288 0.014582 -3.658399 -4.737942 -4.684858 -2.156910 -17.765854 5.217645 -2.271532 2.312664 1.645000 -1.172200 5.591700 2.907662 -3.495518 0.421163 -82.080268 4.954262 42.827646 138.985852 -45.560785 -103.391004 0.066030 -0.212895 -13.450607 17.329665 -10.839878 -3.284500 -7.125000 0.000000 0.000000 -6.882900 18.924900 4.309700 -5.866821 2.088150 0.244940 93.019438 -43.283173 28.109322 -90.764627 60.357007 -66.151620 1.780352 0.390124 -19.390308 -28.524853 10.715984 -6.256300 7.125000 0.000000 0.000000 -2.273600 -17.524000 -1.484700 
4.385782 16.904767 9.158352 21.351404 -31.743977 1.444042 -9.665966 0.285870 6.573129 -9.989402 -8.003810 -0.674450 4.241465 14.007019 41.504394 2.575377 5.822527 40.804763 0.075200 -1.768900 -4.867500 3.804936 4.235223 -5.132844 16.608304 -5.735299 -50.807468 -0.696632 -11.540552 29.841633 -0.807273 -4.597953 22.069507 -0.181000 -2.740100 7.556100 -8.657882 -3.703547 14.294856 -1.362131 -6.020246 -4.051382 0.192974 -3.501571 -4.743886 -4.900866 -2.180877 -17.500072 5.055423 -2.272168 2.212923 1.596500 -1.198900 5.476500 2.975692 -3.473154 0.414369 -82.922149 6.051165 43.733035 136.388281 -47.355296 -101.367843 0.052032 -0.189725 -12.733708 17.700465 -10.882551 -3.382000 -7.125000 0.000000 0.000000 -6.617000 18.827600 4.155200 -5.859532 2.115332 0.263739 93.343898 -42.157224 27.729210 -90.622754 60.302833 -66.052864 1.778313 0.390043 -19.229849 -28.438066 10.611719 -6.173200 7.125000 0.000000 0.000000 -2.222000 -17.658200 -1.444400 
4.105334 16.867248 9.658437 21.016717 -32.146824 0.988896 -9.226339 0.061628 6.108423 -9.893346 -6.574046 -2.008890 5.789161 15.084742 45.927351 2.036308 6.454640 39.066959 0.067000 -1.669700 -4.593700 3.873093 4.119970 -4.823689 16.906043 -5.324791 -49.776550 -1.282850 -12.148639 31.903604 -0.279119 -5.417951 20.228940 -0.718700 -5.417500 15.103400 -8.348883 -3.460841 14.568061 -1.258011 -5.679830 -4.030725 0.394358 -3.292678 -4.864972 -5.076861 -2.196520 -17.200522 4.883324 -2.275638 2.114869 1.532700 -1.227200 5.365700 3.058812 -3.467345 0.409881 -83.856456 7.185600 44.389242 133.341616 -49.207774 -98.971873 0.031983 -0.168785 -12.278983 18.088845 -10.899975 -3.477500 -7.125000 0.000000 0.000000 -6.333200 18.755500 3.985000 -5.833836 2.156818 0.270068 93.569640 -40.778091 27.483330 -90.079103 60.200758 -65.636794 1.775164 0.400817 -19.161545 -28.321878 10.486413 -6.067400 7.125000 0.000000 0.000000 -2.153900 -17.828800 -1.392000 
3.832158 16.809177 10.147666 20.184187 -32.705885 0.761695 -8.747849 -0.137901 5.622491 -9.283008 -5.210011 -3.587311 7.411521 16.089244 50.616583 1.611858 6.623424 37.322925 0.059200 -1.570200 -4.319200 3.957845 3.984716 -4.492025 17.659305 -4.688939 -48.725869 -1.958076 -12.806533 34.222294 0.426066 -6.569453 17.644102 -1.312400 -7.256300 20.477100 -7.705395 -3.181172 14.981724 -1.111353 -5.243136 -4.019026 0.596254 -3.036334 -5.110393 -5.188107 -2.193861 -16.879606 4.703492 -2.273453 2.022674 1.451700 -1.251900 5.264300 3.153216 -3.480953 0.407916 -84.847763 8.352665 44.767264 129.829055 -51.054816 -96.183074 0.005768 -0.151713 -12.084109 18.491918 -10.897820 -3.571200 -7.125000 0.000000 0.000000 -6.033700 18.704900 3.801100 -5.786284 2.213440 0.258911 93.679388 -39.148951 27.422622 -89.054014 60.036983 -64.830390 1.772330 0.424102 -19.209970 -28.213340 10.343598 -5.950100 7.125000 0.000000 0.000000 -2.095900 -18.028100 -1.345300 
3.558033 16.753003 10.624670 18.935180 -33.383227 0.757344 -8.249603 -0.311939 5.116179 -8.207085 -3.962411 -5.359009 9.044214 16.981432 55.389193 1.315179 6.348130 35.611228 0.056000 -1.527500 -4.201600 4.060376 3.839004 -4.141331 18.783217 -3.908310 -47.551464 -2.651708 -13.433169 36.587887 1.219895 -7.887582 14.431388 -1.722900 -8.263400 23.517200 -6.794103 -2.889661 15.478434 -0.936657 -4.739302 -4.003674 0.766475 -2.753420 -5.403396 -5.206408 -2.168315 -16.586594 4.522602 -2.262563 1.933702 1.352900 -1.269500 5.175600 3.250706 -3.513150 0.410704 -85.832218 9.497329 44.844653 125.834447 -52.837524 -92.987385 -0.026471 -0.140275 -12.113720 18.921562 -10.888386 -3.668600 -7.125000 0.000000 0.000000 -5.709800 18.663700 3.600200 -5.718060 2.280474 0.225823 93.679097 -37.219356 27.592992 -87.458105 59.790471 -63.542603 1.771296 0.459276 -19.345109 -28.155904 10.172027 -5.825600 7.125000 0.000000 0.000000 -2.080600 -18.263800 -1.324600 
3.283171 16.699042 11.090398 17.458875 -34.117732 0.926372 -7.743209 -0.474959 4.580015 -6.850846 -2.917855 -7.306305 10.664883 17.756125 60.168166 1.111556 5.740333 33.845281 0.055800 -1.524000 -4.192000 4.160756 3.691532 -3.783551 20.090734 -3.039199 -46.265670 -3.326096 -13.996992 38.908700 2.000253 -9.201269 10.792872 -1.851300 -8.549200 24.395100 -5.773059 -2.611154 15.991536 -0.756471 -4.219847 -3.984626 0.894818 -2.469079 -5.692463 -5.122886 -2.118650 -16.351728 4.360524 -2.239390 1.855140 1.245500 -1.275700 5.105500 3.339519 -3.557030 0.416040 -86.743305 10.610990 44.623768 121.376369 -54.489319 -89.400921 -0.064508 -0.135931 -12.314515 19.395601 -10.882517 -3.776500 -7.125000 0.000000 0.000000 -5.349400 18.620900 3.376000 -5.634280 2.356727 0.168623 93.584313 -34.979137 28.031555 -85.278524 59.439708 -61.736674 1.771568 0.500401 -19.503999 -28.147097 9.979776 -5.698901 7.125000 0.000000 0.000000 -2.103600 -18.523100 -1.327200 
3.006938 16.648454 11.546007 15.943606 -34.854311 1.178166 -7.247951 -0.640300 4.017801 -5.388791 -2.116290 -9.394336 12.233647 18.405747 64.806755 0.969610 4.956106 32.011546 0.053400 -1.491700 -4.102800 4.258363 3.551491 -3.426196 21.409287 -2.192563 -44.842865 -3.928509 -14.459522 41.024619 2.675688 -10.382252 7.018696 -1.752400 -8.330000 23.721100 -4.800071 -2.355915 16.482186 -0.588108 -3.725892 -3.958533 0.991935 -2.201943 -5.935066 -4.948619 -2.047669 -16.190375 4.228567 -2.202856 1.789388 1.136800 -1.269200 5.054800 3.412000 -3.606252 0.421511 -87.533111 11.682654 44.142473 116.505951 -55.944647 -85.468565 -0.108071 -0.138839 -12.596563 19.931996 -10.901235 -3.906300 -7.125000 0.000000 0.000000 -4.940300 18.552400 3.123300 -5.540838 2.440113 0.091084 93.418243 -32.442191 28.728817 -82.589837 58.971816 -59.446571 1.772575 0.538609 -19.568841 -28.182016 9.764888 -5.569100 7.125000 0.000000 0.000000 -2.159300 -18.803500 -1.349000 
